/* XPM */
static const char *characters[] = {
/* columns rows colors chars-per-pixel */
"64 64 13 1 ",
"  c black",
". c #838383",
"X c #858484",
"o c #868585",
"O c gray55",
"+ c gray56",
"@ c gray58",
"# c #A89EAB",
"$ c #A8A4A9",
"% c #B3AFB4",
"& c #E3C3EC",
"* c #E5DBE8",
"= c None",
/* pixels */
"================================================================",
"================================================================",
"================================================================",
"================================================================",
"================================================================",
"================================================================",
"================================================================",
"================================================================",
"=====           ====                         ===           =====",
"=====           ====                         ===           =====",
"===                                                          ===",
"===   ...XX.....     ........................    ...XX....   ===",
"=     ..XXXX....     ........................    ..XXXX...     =",
"=   ....XXXX....    .....XXXXXX...............   ..XXXX.....   =",
"=   .XX..XX.....    ....XXXXXXXXXXX.XXXX......   ...XX......   =",
"=   XXXX####     .....XXXXXXXXXXXXXXXXXXX......     ####....   =",
"=   XXXX#&&&     ....XXXXXXXXXXXXXXXXXXXXX.....     &&&#....   =",
"=   .XX.#&&&    .....XXXXXXXXXXXXXXXXXXXXX......    &&&#....   =",
"=   ....#&&&    ......XXX.XXXXXXXXXXXXXXXX......    &&&#....   =",
"=   ....####   ................XXXXXXXXXXXX......  #####....   =",
"=   .....     .....................XXXXXXXX......     ......   =",
"=     ...   ..........................XXXX.........   ......   =",
"=     ...   .......................................            =",
"===         .......       ..       ..      ........         ====",
"====        .......       ..       ..      ........         ====",
"====        .......       ..       ..      ........   ==========",
"=========   .$$$............       ............$$$.   ==========",
"=========   $***$..........         ..........$***$   ==========",
"=========   $***$..........         ..........$***$   ==========",
"=========   $***$..........         ..........$***$   ==========",
"=========   $***$...XX.....         .....XX...$***$   ==========",
"=========   .$$$...XXXX................XXXXX...$$$.   ==========",
"=========   .......XXXXXXXXX..........XXXXXX.......   ==========",
"=========   ........XXXXXXXXXXXXXXX..XXXXXXX.......   ==========",
"=========   ........XXXXXXXXXXXXXXXXXXXXXXX........   ==========",
"============   ......XXXXXXXXXXXXXXXXXXXX........   ============",
"============   ............XXXXXXXX..XX..........   ============",
"============   ..................................   ============",
"============   ..................................   ============",
"==========   ..                                  ..   ==========",
"==========   ..                                  ..   ==========",
"==========   ..                                  ..   ==========",
"==========   ...........$$$$$$$$$$$$$$$............   ==========",
"==========   ...@@+X...$****************$..X+@@....   ==========",
"==========   ...@++XX..$****************$.XX++@....   ==========",
"==========   ...@++XX..$****************$.XX++@....   ==========",
"==========     .@++++@.$****************$@++++@..     ==========",
"============   .@++++@@.$$$$$$$$$$$$$$$%@@++++@..   ============",
"============   .@++++@@++@@@@@@@@@@@@@@@++++++@..   ============",
"============   .@@+X++++++@@@@@@@@@@@@@+++XX+@@..   ============",
"============   ..XXXXXX+++@@@@@@@@@@@@@++XX.@@@..   ============",
"============   ..XXXXXXXX...............XX.......   ============",
"============   ...XXXX......        .............   ============",
"============   .............        .............   ============",
"============                                        ============",
"===============             ========             ===============",
"===============             ========             ===============",
"================================================================",
"================================================================",
"================================================================",
"================================================================",
"================================================================",
"================================================================",
"================================================================"
};
