/* XPM */
static char *_08d1fc68cb24224a43ca3f597192ac7FOnivnjMpSxP1HE4[] = {
/* columns rows colors chars-per-pixel */
"64 64 14 1 ",
"  c black",
". c #3E561A",
"X c #455F1F",
"o c #658B2B",
"O c #709932",
"+ c #838383",
"@ c #858484",
"# c gray56",
"$ c gray58",
"% c #A89EAB",
"& c #A8A4A9",
"* c #B3AFB4",
"= c #E3C3EC",
"- c #E5DBE8",
/* pixels */
"OOOOOOOOOOOOOOOOOOOOOOOOOOOOOOOOOOOOOOOOOooooOOOOOOOOOOOOOOOOOOO",
"OOOOOOOOOOOOOOOOOOOOOOOOOOOOOOOOOOOOOOOOOOoOOOOOOOOOOOOOOOOOOOOO",
"OOOOOooooooOOOOOOOOOOOOOOOOOOOoooOOOOOOOOOOOOOOOOoooOOOOOOOOoOOO",
"OOOOooOOOOoOOOOoOOOOOOOOoooOOOOOoOOOOOooOOOOOOOOOOOooOOOOOOOOoOO",
"OOOOoOOOOOoOOoooOOOOOOOOoOOooOOOooOOOooOOOOoOOOOOOOooOOOOOOOOOOO",
"OOOOoOOOOOoOOOOOOOOOOOOOOOOOOOOOOOooooOOOoooOOOOOOOOOOOOOOOOOOOO",
"OOOOOOOOOOoOOOOOOOOOOOoOOOOOOOOOOOOOOOOoooOOOOOOOOOOooOOOOOOOOOO",
"OOOOOXXXXX..XXXXOOOOX..XXXXXX.XXXXXXXXXXXXXXXOOOXXXXX..XXXXOOOOO",
"OOOOX           XOOo                         XOX           XOOOO",
"OOOXX           XX..                         XXX           XXOOO",
"OOO                                                          XOO",
"OXX   +++@@+++++     ++++++++++++++++++++++++    +++@@++++   XXO",
"O     ++@@@@++++     ++++++++++++++++++++++++    ++@@@@+++     X",
"X   ++++@@@@++++    +++++@@@@@@+++++++++++++++   ++@@@@+++++   X",
"X   +@@++@@+++++    ++++@@@@@@@@@@@+@@@@++++++   +++@@++++++   X",
"X   @@@@%%%%     +++++@@@@@@@@@@@@@@@@@@@++++++     %%%%++++   X",
"X   @@@@%===     ++++@@@@@@@@@@@@@@@@@@@@@+++++     ===%++++   X",
"X   +@@+%===    +++++@@@@@@@@@@@@@@@@@@@@@++++++    ===%++++   X",
"X   ++++%===    ++++++@@@+@@@@@@@@@@@@@@@@++++++    ===%++++   X",
"X   ++++%%%%   ++++++++++++++++@@@@@@@@@@@@++++++  %%%%%++++   X",
"X   +++++     +++++++++++++++++++++@@@@@@@@++++++     ++++++   X",
"X     +++   ++++++++++++++++++++++++++@@@@+++++++++   ++++++   X",
"X     +++   +++++++++++++++++++++++++++++++++++++++            X",
"OXX         +++++++       ++       ++      ++++++++         XXXO",
"OOOX        +++++++       ++       ++      ++++++++         XOOO",
"OOOX        +++++++       ++       ++      ++++++++   X.XXXXOOOO",
"OOOOoXXXX   +&&&++++++++++++       ++++++++++++&&&+   XooOOOOOOO",
"OOOOooOOX   &---&++++++++++         ++++++++++&---&   XOOOOOOOOO",
"OOOOOoOOX   &---&++++++++++         ++++++++++&---&   XOOOOOOOOO",
"OOOOOoOO.   &---&++++++++++         ++++++++++&---&   XOOOOOOOOO",
"OOOOoOOO.   &---&+++@@+++++         +++++@@+++&---&   XOOOOOOOOO",
"OOOOOOOOX   +&&&+++@@@@++++++++++++++++@@@@@+++&&&+   XOOOOOOOOO",
"OOOOOOOOX   +++++++@@@@@@@@@++++++++++@@@@@@+++++++   XOOOOOOOOO",
"OOOOOOOOX   ++++++++@@@@@@@@@@@@@@@++@@@@@@@+++++++   XOOOOOOOOO",
"OOOOOOOOX   ++++++++@@@@@@@@@@@@@@@@@@@@@@@++++++++   XOOOOOOOOO",
"OoOOOOOOOOXX   ++++++@@@@@@@@@@@@@@@@@@@@++++++++   .XOOOOOOOOOO",
"OOOOOOOOOOOX   ++++++++++++@@@@@@@@++@@++++++++++   .OOOOooOOOOO",
"OOOOOOOOOOOX   ++++++++++++++++++++++++++++++++++   .OOOOOoooOOO",
"OOOOOOOOOOX.   ++++++++++++++++++++++++++++++++++   ..OOOOOOOOOO",
"OOOOOOOOOX   ++                                  ++   XOOOOOOOOO",
"OOOOOOOOo.   ++                                  ++   XOOOOOOOOO",
"OoOOOOOOoX   ++                                  ++   XOOOOOOOOO",
"OoOOOOOOOX   +++++++++++&&&&&&&&&&&&&&&++++++++++++   XOOOOOOOOO",
"OoOOOOOOOX   +++$$#@+++&----------------&++@#$$++++   XooOOOOOOO",
"OOOOOOOOOX   +++$##@@++&----------------&+@@##$++++   XoOOOOOOOO",
"OOOOOOOOOX   +++$##@@++&----------------&+@@##$++++   XoOOOOOOOO",
"OOOOOOOOOX     +$####$+&----------------&$####$++     XoOOOOOOOO",
"OOOOOOOOOo.X   +$####$$+&&&&&&&&&&&&&&&*$$####$++   XXOoOOOOOOOO",
"OOOOOOOOooOX   +$####$$##$$$$$$$$$$$$$$$######$++   XOOOOOOOOOOO",
"OOOOOOOOoOOX   +$$#@######$$$$$$$$$$$$$###@@#$$++   XOOOOOOOOOOO",
"OOOOOOOOOOOX   ++@@@@@@###$$$$$$$$$$$$$##@@+$$$++   XOOOOOOOOOOO",
"OOOOOOOOOOOX   ++@@@@@@@@+++++++++++++++@@+++++++   XOOOOOOOOOOo",
"oOOOOOOOOOOX   +++@@@@++++++        +++++++++++++   .oOOOOOOOOOO",
"oOOOOOOOOOOX   +++++++++++++        +++++++++++++   XOOOOOOOOOoo",
"OOOOOOOOOOOX                                        XOOOOOOOOOOO",
"OOOOOOOOOOOOXXX             .XXXXXXX             XXXOOOOOOOOOOOO",
"OOOOOOOOOoOOOOX             .oooOOOX             .oOOOoOOOOOOOOO",
"OOOOOOOOOoooooOX...XXX.XXXXXOOOOOOOOXXXXXX..XXXXXOOOOOoOOOOOOoOO",
"OOOoOOOOOOOOOOoooOOOOOoOOOOOOOOOOOOOOOOOOOOOOOOOOOOOOooOOOOOOoOO",
"OOOoOOOOOOOOOOOOOOOOOOOooOOOOOOOOOoOOooOOOOOOOOOOOOOOOOOOOoOOoOO",
"OOOOOOOoOOOOOOOOOOOOOOOOOOOOOOOOOOoooOOOOOOOOOOOOOOOOOOOOOOOOOOO",
"OOOOOOOoOOOOOOOOOOOOOOOOOOOOOOOOOOOOOOOOOOOOOOoOOOOOOOOOOoOOOOOO",
"OOOOOOOOOOooOOOOOOOOOOOOOOOOOOOOOOOOOOOOOOOOOooOOOOOOOOOOOOOOOOO",
"OOOOOOOOOOOOOOOOOOOOOOOOOOOOOOOOOOOOOOOOOOOOooOOOOOOOOOOOOOOOOOO"
};
