/* XPM */
static char *ba2f611fe4a24e59e8c87eb774ae540dEYBAatEcjjAI92gJ[] = {
/* columns rows colors chars-per-pixel */
"64 64 8 1 ",
"  c black",
". c #315909",
"X c #557834",
"o c #448222",
"O c #658B2B",
"+ c #709932",
"@ c #6F9749",
"# c #78A24F",
/* pixels */
"+++++++++++++++++++++++++++++++++++++++++OOOO+++++++++++++++++++",
"++++++++++++++++++++++++++++++++++++++++++O+++++++++++++++++++++",
"+++++OOOOOO+++++++++++++++++++OOO++++++++++++++++OOO++++++++O+++",
"++++OO++++O++++O++++++++OOO+++++O+++++OO+++++++++++OO++++++++O++",
"++++O+++++O++OOO++++++++O++OO+++OO+++OO++++O+++++++OO+++++++++++",
"++++O+++++O+++++++++++++++++++++++OOOO+++OOO++++++++++++++++++++",
"++++++++++O+++++++++++O++++++++++++++++OOO++++++++++OO++++++++++",
"++++++++++OO+++++++++OO++++++O+++++++++++++++++++++++OO+++++++++",
"+++++++++++OOO+++++OO++++++++OO+++++++++++++++++++++++O++OO+++++",
"++++++++++++++++++OO++++++++++O+++++++++++++++++++++++OOOO++++++",
"+++++++O++++++++++O+++++++++++OO++++++++++++++OO++++++++OO++++++",
"+++++++O+++++++O++++++++++O+++++++++++++++++OOO++++++++OO+++++++",
"++++++OO++++++O+++++++++++O+++++++++O++++++OO++++++++++O++++++++",
"++++++O+++++++O+++++++++++OO++++++++OO++++++++++++++++O+++++++++",
"++++++++++++++O++++++++++++++++++++++O+++++++++++++++OO+++++++++",
"++++++++++++++O+++++O++++++++++++++++OO+++++++++++++++++++++++++",
"+++++++++++++++++++O++++++++++++++++++O+++++++++OO++++++++++++++",
"+++++++++++++++++++OOO++++++++++++++           +++O++++++++++OO+",
"+++++O+++++++++++++OO+++++++++++++++           +++OO++++++++++O+",
"++++OO++++++++++++OO+++++++OO+++      .........  ++O++++++++++O+",
"++++O++++++++++++O++++++++OO++      ...........  ++OO+++++++++++",
"+++++OO+++OO+++++OO+++++++O+    ......ooo@@@#..  +++++++++++++++",
"+++++O+++++O++++++OOO++++O      ......o@@@###..  +++++++O+++++++",
"++++OO++++++O+++O+++OO+++O  ......ooo@@####@...  ++++++OO+++++++",
"++++O+++++++O+++O++++++++  .......oo@@##@@@@...  ++++++O++++++++",
"++++O++++++O++++O++++++    ...oooooo@##@@o.....  ++++++O++++++++",
"++++O+++++OO+++OO+++++   .....oooo@@##@@o...    +++++++OO+++++++",
"++++OO+++++++++O+++++   .....oooo@@##@@oo...    +++O++++++++++++",
"+++++O+++++++++++++++  ....ooooo@@##@@ooo...  +++++OO+++++++++++",
"+++++O++O+++++++++++  ....oooo@@@##@@ooo...  +O+++++O+++++++++++",
"++++O+++OO+++++++++O  ...oooo@@###@@oo.....  +O+++++++++++++++++",
"+++++++++O++++++++O   ..oooo@@##@@@@o....   ++++++++++++++++++++",
"+++++++++OO++++++OO  ...o@@@@##@@ooo....    ++++++++O+++++++++++",
"++++++++++O++++++O+  ...@@@###@@oooo....   +++++++++++++++++++++",
"+++++++++++++++++O+  ...@###@@@ooooo..   +++++++++OO++++++++++++",
"+O+++++++++++++++O  ..o@##@@@@ooo....    +++++++++O+O+++++++++++",
"++++++++++++++++    ..@##@@oooooo....   ++OO++++++++O++++OO+++++",
"++++++++++++++++  ....##@@ooooo...    +++OO+++++++++O+++++OOO+++",
"+++++++++++OO++++  ...............    ++++++++++++++OO++++++++++",
"++++++++++OO+++++  ............   OO++++++++++++++++++++++++++++",
"++++++++OOO++++  .X ..            ++++++++++++OO++++++++++++++++",
"+O++++++O+++++  XX. ..         O+++++++++++++OO+++++++++++++++++",
"+O++++++++++++ .XX.     +++++++O++++++++++++OO++++++++++++++++++",
"+O++++++++++++ XX.    +++++++++O+++++++++++OO++++++++++OO+++++++",
"++++++++++++++ .. +++++++++++++++++++++++++O+++++++++++O++++++++",
"+++++++++++O++   +++OO+++++++++++++++++++++O++++++OO+++O++++++++",
"++++++++++O+++  +++++O+++++++++++++++++++++++++++OO++++O++++++++",
"+++++++++OO+OO+++++++++++++++O++++++++++OO++++++OO+++++O++++++++",
"++++++++OO+++OOOO+++++++O+++++OO+++++++O+++++++OO+++++++++++++++",
"++++++++O++++++OOO+++++++++++++OO+++++++++++++OO++++++++++++++++",
"++++++++++++++++OO++++++++++++++O+++++++++++++++++++++++++++++++",
"++++++++++++++++O+++++++++++++++OO+++++++++++++++++++++++++++++O",
"O++++++++++++++O+++++++++++++++++O+++++++++++++++++OOO++++++++++",
"O+++++++++++++OO+++++++++++++++++O++++++++++++++++++++++++++++OO",
"+++++++++++++O++++++++++++++++++++++++++++++++++++++++++++++++++",
"++++++++++++++++++++++++++OOO+++++++++++++++++++++++++++++++++++",
"+++++++++O++++++++O++++O++++OOOO+++++++++++OOOOOOOO+++O+++++++++",
"+++++++++OOOOO++OOO+++O+++++++++++++++++++OO++++++++++O++++++O++",
"+++O++++++++++OOO+++++O++++++++++++++++++++++++++++++OO++++++O++",
"+++O+++++++++++++++++++OO+++++++++O++OO+++++++++++++++++++O++O++",
"+++++++O++++++++++++++++++++++++++OOO+++++++++++++++++++++++++++",
"+++++++O++++++++++++++++++++++++++++++++++++++O++++++++++O++++++",
"++++++++++OO+++++++++++++++++++++++++++++++++OO+++++++++++++++++",
"++++++++++++++++++++++++++++++++++++++++++++OO++++++++++++++++++"
};
