/* XPM */
static const char *exit_close[] = {
/* columns rows colors chars-per-pixel */
"64 64 11 1 ",
"  c black",
". c #BC3232",
"X c #658B2B",
"o c #709932",
"O c #4078B2",
"+ c #A4A3A4",
"@ c #A6A5A6",
"# c #ACAAAC",
"$ c #AFADAF",
"% c #E0BDEA",
"& c #F6EBF9",
/* pixels */
"oooooooooooooooooooooooooooooooooooooooooXXXXooooooooooooooooooo",
"ooooooooooooooooooooooooooooooooooooooooooXooooooooooooooooooooo",
"oooooXXXXXXoooooooooooooooooooXXXooooooooooooooooXXXooooooooXooo",
"ooooXXooooXooooXooooooooXXXoooooXoooooXXoooooooooooXXooooooooXoo",
"ooooXoooooXooXXXooooooooXooXXoooXXoooXXooooXoooooooXXooooooooooo",
"ooooXoooooXoooooooooooooooooooooooXXXXoooXXXoooooooooooooooooooo",
"ooooooooooXoooooooooooXooooooooooooooooXXXooooooooooXXoooooooooo",
"ooooooooooXXoooooooooXXooooooXoooooooooooooooooooooooXXooooooooo",
"oooooooooooXXXoooooXXooooooooXXoooooooooooooooooooooooXooXXooooo",
"ooooooooooooooooooXXooooooooooXoooooooooooooooooooooooXXXXoooooo",
"oooooooXooooooooooXoooooooooooXXooooooooooooooXXooooooooXXoooooo",
"oooooooXoooooooXooooooooooXoooooooooooooooooXXXooooooooXXooooooo",
"ooooooXXooooooXoooooooooooXoooooooooXooooooXXooooooooooXoooooooo",
"ooooooXoooooooXoooooooooooXXooooooooXXooooooooooooooooXooooooooo",
"ooooooooooooooXooooooooooooooooooooooXoooooooooooooooXXooooooooo",
"ooooooooooooooXoooooXooooooooooooooooXXooooooooooooooooooooooooo",
"oooooooooooooooooooXooooooooooooooooooXoooooooooXXoooooooooooooo",
"oooooooooooooooooooXXXooooooooooooooooXoooooooooooXooooooooooXXo",
"oooooXoooooooooooooXXoooooooooooooooooooooooXoooooXXooooooooooXo",
"ooooXXooooooooooooXXoooooooXXoooooooooooooooXXoooooXooooooooooXo",
"ooooXooooooooooooXooooooooXXooooooooooooooooXXXooooXXooooooooooo",
"oooooXXoooXXoooooXXoooooooXooooXXXooooooooXXXoXXoooooooooooooooo",
"oooooXoooooXooooooXXXooooXooooooXXXooooooXXooooXooooooooXooooooo",
"ooooXXooooooXoooXoooXXoooXoo..........oooooooooXoooooooXXooooooo",
"ooooXoooooooXoooXooooooooX...............ooooooooooooooXoooooooo",
"ooooXooooooXooooXoooooooX.................oooooooooooooXoooooooo",
"ooooXoooooXXoooXXooooooo.....................ooooooooooXXooooooo",
"ooooXXooooooooo       oo.....      ...........   ooXoooooooooooo",
"oooooXoooooooo  $       ....        .......       oXXooooooooooo",
"oooooXooXooo   $$$$$$$  ................   $$$$$$  oXooooooooooo",
"ooooXoooXXoo  $$$$$$$$   $$$.........@$$$  $$$$$$$  oooooooooooo",
"oooooooooXoo  $$$&&   $$$$@@@+++++@@@@@$$    &&$$$  oooooooooooo",
"oooooooooXXo  $$&%%   $$$+++++@@@@$$@@@$$$   %%&$$  Xooooooooooo",
"ooooooooooXo  $$&%%   $@@+++++@@@@+@+@@$$$   %%&$$  oooooooooooo",
"oooooooooooo  $$$    $$@@@$@@@@@@@+@@@@$$$$   $$$$  oooooooooooo",
"oXoooooooooo   $$  $$$$$$$$$$$$$$$$@@@@$$$$$        Xooooooooooo",
"oooooooooooooo     $$$$     $     $     $$$$      ooXooooXXooooo",
"oooooooooooooo     $$$$     $     $     $$$$    ooooXoooooXXXooo",
"oooooooooooXXoooo  $$$$$$O$$$     $$$O$$$$$$  ooooooXXoooooooooo",
"ooooooooooXXooooo  $&&$$$O$$$     $$$OO$$$&$  oooooooooooooooooo",
"ooooooooXXXoooooo  $&&$$O@$$       $$@@$$&&$  XXoooooooooooooooo",
"oXooooooXoooooooo  $$&$$@+@$       $$@O$$&&$  Xooooooooooooooooo",
"oXooooooooooooooo  $$$$$O+@@$$$$$$$$@++$$$$$  oooooooooooooooooo",
"oXooooooooooooooo  $$$$$@+@@@@@@@@@@@@@$$$$$  oooooooooXXooooooo",
"ooooooooooooooooooo  $$$@@@@@@@@@@@@@@$$$$$  ooooooooooXoooooooo",
"oooooooooooXooooooo  $$$$$$$##$$$###$$$$$$$  oooooXXoooXoooooooo",
"ooooooooooXoooooooo  $$$$$$$$$$$$$$$$$$$$$$  ooooXXooooXoooooooo",
"oooooooooXXoXXoooo  $                      $  ooXXoooooXoooooooo",
"ooooooooXXoooXXXXo  $                      $  oXXooooooooooooooo",
"ooooooooXooooooXXX  $$##$$$&&&&&&&&&&$$$$$$$  XXoooooooooooooooo",
"ooooooooooooooooXX  $$####$&&&&&&&&&&$@@@$$$  oooooooooooooooooo",
"ooooooooooooooooXo   $$@@#$&&&&&&&&&&$@@@$$   oooooooooooooooooX",
"XooooooooooooooXooo  $$@@@$$$$$$$$$$$$@@$$$  ooooooXXXoooooooooo",
"XoooooooooooooXXooo  $$@@@$$$$$$$$$$$$@@$$$  oooooooooooooooooXX",
"oooooooooooooXooooo  $$###$$$$$$$$$$$$$$$$$  ooooooooooooooooooo",
"ooooooooooooooooooo  $$$$$$$$      $$$$$$$$  ooooooooooooooooooo",
"oooooooooXooooooooX                          XXXXXXoooXooooooooo",
"oooooooooXXXXXooXXXoo        oooooo        XooooooooooXooooooXoo",
"oooXooooooooooXXXoooooXooooooooooooooooooooooooooooooXXooooooXoo",
"oooXoooooooooooooooooooXXoooooooooXooXXoooooooooooooooooooXooXoo",
"oooooooXooooooooooooooooooooooooooXXXooooooooooooooooooooooooooo",
"oooooooXooooooooooooooooooooooooooooooooooooooXooooooooooXoooooo",
"ooooooooooXXoooooooooooooooooooooooooooooooooXXooooooooooooooooo",
"ooooooooooooooooooooooooooooooooooooooooooooXXoooooooooooooooooo"
};
