/* XPM */
static const char *floor[] = {
/* columns rows colors chars-per-pixel */
"64 64 2 1 ",
"  c #658B2B",
". c #709932",
/* pixels */
".........................................    ...................",
".......................................... .....................",
".....      ...................   ................   ........ ...",
"....  .... .... ........   ..... .....  ...........  ........ ..",
".... ..... ..   ........ ..  ...  ...  .... .......  ...........",
".... ..... .......................    ...   ....................",
".......... ........... ................   ..........  ..........",
"..........  .........  ...... .......................  .........",
"...........   .....  ........  ....................... ..  .....",
"..................  .......... .......................    ......",
"....... .......... ...........  ..............  ........  ......",
"....... ....... .......... .................   ........  .......",
"......  ...... ........... ......... ......  .......... ........",
"...... ....... ...........  ........  ................ .........",
".............. ...................... ...............  .........",
".............. ..... ................  .........................",
"................... .................. .........  ..............",
"...................   ................ ........... ..........  .",
"..... .............  ....................... .....  .......... .",
"....  ............  .......  ...............  ..... .......... .",
".... ............ ........  ................   ....  ...........",
".....  ...  .....  ....... ....   ........   .  ................",
"..... ..... ......   .... ......   ......  .... ........ .......",
"....  ...... ... ...  ... ......    ........... .......  .......",
".... ....... ... ........ .....  .. ................... ........",
".... ...... .... .......  ....  ....................... ........",
".... .....  ...  .......  .... ......... ..............  .......",
"....  ......... ........  ... .......... .......... ............",
"..... ..................................  ... .....  ...........",
"..... .. ..................................... ..... ...........",
".... ...  ......... ........... .............. .................",
"......... ........  ...........  ...............................",
".........  ......  .......... ...    ............... ...........",
".......... ...... ........... ..... ............................",
"................. ...  ......  .... ..............  ............",
". ...............     .......       .............. . ...........",
"..................   ......... ...  ......  ........ ....  .....",
".................  ............ ... .....  ......... .....   ...",
"...........  .... ............. ... ................  ..........",
"..........  ...... ............ ..  ............................",
"........   ............   ..... ..............  ................",
". ...... .............. ....... .............  .................",
". ............................. ............  ..................",
". ............................. ...........  ..........  .......",
"........................................... ........... ........",
"........... ........  ..................... ......  ... ........",
".......... .......... ...........................  .... ........",
".........  .  ............... ..........  ......  ..... ........",
"........  ...    ....... .....  ....... .......  ...............",
"........ ......   .............  .............  ................",
"................  .............. ...............................",
"................ ...............  ............................. ",
" .............. ................. .................   ..........",
" .............  ................. ............................  ",
"............. ..................................................",
"..........................   ...................................",
"......... ........ .... ....    ...........        ... .........",
".........     ..   ... ...................  .......... ...... ..",
"... ..........   ..... ..............................  ...... ..",
"... ...................  ......... ..  ................... .. ..",
"....... ..........................   ...........................",
"....... ...................................... .......... ......",
"..........  .................................  .................",
"............................................  .................."
};
