/* XPM */
static const char *walls[] = {
/* columns rows colors chars-per-pixel */
"64 64 21 1 ",
"  c #7B1F1C",
". c #7C1E1D",
"X c #6E281F",
"o c #79221F",
"O c #7A241D",
"+ c #702B1A",
"@ c #712D1A",
"# c #6F2A20",
"$ c #653C28",
"% c #31720D",
"& c #347A0E",
"* c #245C29",
"= c #2B6831",
"- c #6B441D",
"; c #6C471D",
": c #68402B",
"> c #658B2B",
", c #709932",
"< c #AEAA25",
"1 c #ABAF26",
"2 c #ACB024",
/* pixels */
",,>,,,,,,,,,,,,,,,,,,,,*****===*****===*****,,,,,,,,,,,,,,,,,,,,",
",,>,,,,,,,,,,,,,,,,,,*******===****====*******,,,>,,,,,,,,,,,,,,",
",,>>,,,,,,,,,,,,,,,,********====***===*********,,>,,,,>,,,,,>,,,",
",,,>,,,,,,,,*****************=========*********,,>,,,,>,,,,,,>,,",
",,,,,,,,,,,,***********====**==============*****,,,,,,>,,,,,>>,,",
",,,,,,,,,,,,********=**********======***********,,,,,,>>>>,,>,,,",
",,,,,,,,>,*****====************====*********=****,,,,,,>,,,,,,,,",
",,,,,,,>,,********=************====**********=*******,,>,,,,,,,,",
",,,,,>>>,*************&***&&&&**===***&&&&***=*******,,>,,,,,,>,",
",,,,,,,,>***=******++%&&%%%&*****==****%%%****===*******,,,,,>>,",
",,,,,,,,,***=*****$--++%%%%&*****===***%%%&****=====****,,,,,,,,",
",,,,,,,,,***==***@;-2+%%%%%*******==***%%%&*************,,,,,,,,",
">,,,,,,,****==***&;;-+%%%&***=****==***%%%++%************,,,,,,,",
",>>>,,,,*********%+  +%&**********==***%%O--+&******==***,,,,,>,",
",,,>,,,,*****X@@&%%%%&&&***==******=***%%O-<+%&&&***==***,,,,,>,",
",,,,,,***==**$;-+%%%%&*************=***&%OO-+%&&&***==*****,,,>,",
",,>,,,******@;--+%%%*****=****&&***=***&&%%+%%%&***===*****,,,,,",
",,>,,,******%--2+%%%*****=****%%%**===***&%%%%%&***=====***,,,,,",
",,,,,***=***%++++%&&XX*===***&%%%**===***&%%%%%****=&&===****,,,",
",,,,,***=***%%%%%%*.;:X**=****%%%%*===***&%%%%&***==&&===****,,,",
",,,,,***=****&&&***o:2X****=***%++**==***&%%%%&***=&&&===******,",
",,>,,***=****&&&***o:OX****=**XOO-**==****&&&***===++%===******,",
">>>,,***==***=*****=++%&***==**O-2+***=***&*****=&&--O===******,",
",,,,,******===***==&%%%%****=**o--%***=*********=&@-<O======***,",
",,,,***=***===******%%%%&***=**X++%****==*****&&%%+---@@&===***,",
",,,,***=***@;;:==***&%%%%***=**********==***====%%%+++%&&===***,",
",,,,***=***@22:#=****%+OOO***=*********====***==%%%%%%%&&===***,",
",,,,***=***&;;;@==***&+O2-+**=******=====*****==&%%%%%%&&******,",
",,,,*******&&@@&==*****O--+**=*****====*********=&%%%%%==*****,,",
",,,,****===******===***O-O+**=*****====*********==%%%%===*****,,",
",,>,,****==******===****X&***=***======****&&****=&&&&==******,,",
",,>,,,***==******=====***&***&=====***==***%%%***=======*******,",
",,>,,,***=========***=***&***=***==***==***%+ ******====*******,",
",>>>>>***=========***===***===****=***==***%+-;$****========***,",
",>,,,,******&&&@;;$****=***==**************%+-O$*******====***,,",
",>,,,,*********@2O;@***=***=&**************%+O-;+%%&***====***,,",
",,,,,,*********@;;O@***====*************=***%++o%%%%***====***>>",
",,,,,,***********@@&&***==****%%%*******=***%%%%%%%%***====***,,",
",,,***=***====***&&&&***==****%%%*******==***%%%%%%%*****==***,,",
",,,***=*****==****&&&***==***&%%%************%%%%%%%&****==***,,",
",,,***=*******=****&&***====******=***;$$*=***&%%%************,,",
",,***==*******=****&****=*********=**+-2<*=*******************,,",
",,***==***&****=***&***==*********=**%OO$**=***********=*****,,,",
",,***==***&&****====***==***%%%***=**%%+***=******=======****,,,",
",,***==***&&****=========***%%%***=***&&***==========***=***>,,,",
",,***==***%%%***********=***%%%***=********=***===:;;***=***>,,,",
",,***===**%%%&**********=****&***==********=***&%+-O;***=***,>,,",
",,,,,*****%%%&**********==*******====**********&%+22$**==***,>,,",
",,,,,***=***&%%%&&&&&&***=*******===***&&***=***%+ @***==***,,>,",
",,,,,***=***&% + %%%%%***=*****=====***&&***=***%%+&***==***,,>,",
",,>>>***=****%-2O+%%%%***=***======&***&%%%******&&&***==***,>,>",
",>>,,***=*****$2-+%%%%***=********** %%%%%%******&&&***==***,,,>",
">>,,,***==****$$o@&&&&***=*******$$$+%%%%%%*******&&***=****,,,,",
">,,,,***==***=***********=*******$o1+%%%%&&***=******==****,>>>>",
",,,,,*****====***********=***&&&@O;;@*********=******==****>,,,,",
",,,,,,,******************=*****&&&************==*****=****,,,,,,",
",,,,,,,*********=====***==********************==***===****,,,,,,",
",,,,,>,,****************====**********=====***==***===***,,,,>,,",
",,,>>,,,,,>>>***********======*****&=================***,,,,,>,,",
",,,>,,,,,>>,,*******************====***===***======*****,>>,,>,,",
",,,,,,,>>,>,,,,,,,,***********======***===**************,>,,,,,,",
",,,,,,,>,,>>,,,,,,,***********===******===************,,,>,,,,,,",
",,,,,,,,,,>>,,,,,,,,,,,,,*****===******===***********,,,,,,,,,,,",
",,,,,,,,,,,,,,,,,>>,,,,,,*****===******===**,,,,,,,,,,,,,,,,,,,,"
};
